{"scene":0,"scenes":[{"nodes":[0]}],"asset":{"version":"2.0","generator":"https://github.com/mikedh/trimesh"},"accessors":[{"componentType":5125,"type":"SCALAR","bufferView":0,"count":146754,"max":[24460],"min":[0]},{"componentType":5126,"type":"VEC3","byteOffset":0,"bufferView":1,"count":24461,"max":[5.84250020980835,20.684099197387695,1.9170000553131104],"min":[-5.84250020980835,-0.05660000070929527,-1.8530999422073364]}],"meshes":[{"name":"man.obj","extras":{"processed":true},"primitives":[{"attributes":{"POSITION":1},"indices":0,"mode":4}]}],"nodes":[{"name":"world","children":[1]},{"name":"man.obj","mesh":0}],"buffers":[{"uri":"gltf_buffer_0.bin","byteLength":587016},{"uri":"gltf_buffer_1.bin","byteLength":293532}],"bufferViews":[{"buffer":0,"byteOffset":0,"byteLength":587016},{"buffer":1,"byteOffset":0,"byteLength":293532}]}